<?xml version="1.0" encoding="utf-8"?>
<!-- Generator: Adobe Illustrator 18.1.1, SVG Export Plug-In . SVG Version: 6.00 Build 0)  -->
<!DOCTYPE svg PUBLIC "-//W3C//DTD SVG 1.1//EN" "http://www.w3.org/Graphics/SVG/1.1/DTD/svg11.dtd">
<svg version="1.1" id="Layer_1" xmlns="http://www.w3.org/2000/svg" xmlns:xlink="http://www.w3.org/1999/xlink" x="0px" y="0px"
	 width="612px" height="792px" viewBox="0 0 612 792" enable-background="new 0 0 612 792" xml:space="preserve">
<image overflow="visible" enable-background="new    " width="2592" height="1936" xlink:href="../../../../../Photos/Travel/Newfoundland/IMG_6178.JPG"  transform="matrix(0.2361 0 0 0.1805 0 221.2749)">
</image>
<g>
	<polygon fill="#FFFFFF" points="272.7,354.6 272.7,407.9 282.9,411.8 280.8,385 288.2,403.5 299.4,387 293.5,415.8 302.5,419.7 
		314,380.3 298.3,376 290.1,388.8 288.9,354.6 	"/>
	<polygon fill="#FFFFFF" points="272.7,411.9 300.9,422.1 314,433.2 298.6,433.2 289.4,418 290.2,433.2 272.7,433.2 	"/>
	<path fill="#FFFFFF" d="M350.5,447.1h-88.9V344.9h88.9V447.1z M265.2,443.5h81.6v-94.9h-81.6V443.5z"/>
</g>
</svg>
