<?xml version="1.0" encoding="utf-8"?>
<!-- Generator: Adobe Illustrator 18.1.1, SVG Export Plug-In . SVG Version: 6.00 Build 0)  -->
<!DOCTYPE svg PUBLIC "-//W3C//DTD SVG 1.1//EN" "http://www.w3.org/Graphics/SVG/1.1/DTD/svg11.dtd">
<svg version="1.1" id="Layer_1" xmlns="http://www.w3.org/2000/svg" xmlns:xlink="http://www.w3.org/1999/xlink" x="0px" y="0px"
	 viewBox="0 0 529.6 302.4" style="enable-background:new 0 0 529.6 302.4;" xml:space="preserve">
<style type="text/css">
	.st0{opacity:0.51;fill:#020202;}
	.st1{fill:#FFFFFF;}
</style>
<image style="overflow:visible;" width="2592" height="1936" xlink:href="../../../../../Photos/Travel/Newfoundland/IMG_6178.JPG"  transform="matrix(0.2043 0 0 0.1562 0 0)">
</image>
<rect class="st0" width="529.6" height="302.4"/>
<g>
	<polygon class="st1" points="236,115.4 236,161.5 244.8,164.9 243,141.7 249.4,157.7 259.1,143.4 254,168.3 261.8,171.7 
		271.7,137.6 258.1,133.9 251,145 250,115.4 	"/>
	<polygon class="st1" points="236,165 260.4,173.8 271.7,183.4 258.4,183.4 250.4,170.2 251.1,183.4 236,183.4 	"/>
	<path class="st1" d="M303.3,195.4h-76.9V107h76.9V195.4z M229.5,192.3h70.6v-82.1h-70.6V192.3z"/>
</g>
</svg>
