<?xml version="1.0" encoding="utf-8"?>
<!-- Generator: Adobe Illustrator 19.1.0, SVG Export Plug-In . SVG Version: 6.00 Build 0)  -->
<!DOCTYPE svg PUBLIC "-//W3C//DTD SVG 1.1//EN" "http://www.w3.org/Graphics/SVG/1.1/DTD/svg11.dtd">
<svg version="1.1" id="Layer_1" xmlns="http://www.w3.org/2000/svg" xmlns:xlink="http://www.w3.org/1999/xlink" x="0px" y="0px"
	 width="612px" height="792px" viewBox="0 0 612 792" style="enable-background:new 0 0 612 792;" xml:space="preserve">
<style type="text/css">
	.st0{fill:#C8C8C8;}
	.st1{fill:none;stroke:#C8C8C8;stroke-width:8;stroke-miterlimit:10;}
</style>
<circle cx="294.7" cy="351.5" r="86.4"/>
<g>
	<path class="st0" d="M236.8,309.6h32.3c3.7,0,7,0.5,9.9,1.6c2.9,1,5.4,2.5,7.4,4.2c2,1.8,3.6,3.9,4.7,6.3s1.6,4.9,1.6,7.6
		c0,3.5-0.8,6.8-2.5,9.9c-1.6,3.1-4.2,5.8-7.5,8.1c2.6,1,4.9,2.2,6.7,3.6c1.9,1.4,3.4,3,4.5,4.7c1.2,1.7,2,3.6,2.5,5.5
		c0.5,2,0.8,4,0.8,6c0,3.2-0.7,6.2-2,9.1c-1.4,2.8-3.2,5.3-5.5,7.4s-4.9,3.8-7.9,5s-6.1,1.9-9.3,1.9h-35.9v-80.9H236.8z M249,342.5
		h18.2c2.1,0,3.9-0.3,5.7-1c1.7-0.6,3.2-1.5,4.4-2.6c1.2-1.1,2.2-2.4,2.9-3.8c0.7-1.5,1-3,1-4.7c0-1.5-0.2-2.9-0.7-4.1
		c-0.5-1.3-1.2-2.4-2.3-3.3c-1-0.9-2.3-1.7-3.9-2.2s-3.5-0.8-5.6-0.8H249V342.5z M249,380.2h20.2c1.9,0,3.7-0.3,5.6-0.8
		s3.6-1.4,5.1-2.5s2.7-2.5,3.7-4.2s1.4-3.7,1.4-6c0-1.9-0.4-3.7-1.3-5.4c-0.9-1.7-2.1-3.2-3.7-4.5s-3.6-2.3-5.9-3.1
		c-2.3-0.8-5-1.1-7.9-1.1H249V380.2z"/>
	<path class="st0" d="M314.8,364.3c0.1,2.4,0.6,4.6,1.4,6.7s1.9,3.9,3.2,5.5c1.3,1.6,2.8,2.9,4.6,3.8c1.8,0.9,3.7,1.4,5.7,1.4
		c7,0,11.8-3.7,14.4-11.1h11.1c-0.7,3.4-1.8,6.3-3.5,8.9c-1.6,2.6-3.6,4.8-5.9,6.6c-2.3,1.8-4.8,3.2-7.6,4.1
		c-2.8,0.9-5.6,1.4-8.5,1.4c-4.2,0-8-0.8-11.3-2.5c-3.4-1.7-6.2-3.9-8.6-6.7c-2.4-2.8-4.2-6.1-5.5-9.9s-1.9-7.7-1.9-11.9
		c0-3.9,0.6-7.6,1.9-11.1s3.1-6.7,5.5-9.3c2.4-2.7,5.2-4.8,8.6-6.4s7.1-2.4,11.3-2.4c4,0,7.7,0.7,10.9,2.1c3.3,1.4,6,3.4,8.3,5.9
		s4,5.5,5.3,9c1.2,3.5,1.9,7.2,1.9,11.3v4.7h-41.3V364.3z M343.6,355.2c-0.2-2-0.7-3.8-1.4-5.5c-0.8-1.7-1.8-3.2-3-4.4
		c-1.3-1.2-2.8-2.2-4.5-2.9c-1.7-0.7-3.6-1.1-5.7-1.1c-1.9,0-3.7,0.4-5.3,1.1c-1.6,0.7-3.1,1.8-4.3,3c-1.2,1.3-2.2,2.8-3,4.4
		c-0.8,1.7-1.3,3.4-1.5,5.3h28.7V355.2z"/>
</g>
<line class="st1" x1="313.4" y1="317.6" x2="346.4" y2="317.6"/>
</svg>
