<?xml version="1.0" encoding="utf-8"?>
<!-- Generator: Adobe Illustrator 19.1.0, SVG Export Plug-In . SVG Version: 6.00 Build 0)  -->
<!DOCTYPE svg PUBLIC "-//W3C//DTD SVG 1.1//EN" "http://www.w3.org/Graphics/SVG/1.1/DTD/svg11.dtd">
<svg version="1.1" id="Layer_1" xmlns="http://www.w3.org/2000/svg" xmlns:xlink="http://www.w3.org/1999/xlink" x="0px" y="0px"
	 width="214.1px" height="214px" viewBox="180.9 258.9 214.1 214" style="enable-background:new 180.9 258.9 214.1 214;"
	 xml:space="preserve">
<g>
	<path d="M279.6,258.9c5.6,0,11.2,0,16.7,0c1.4,0.3,2.7,0.6,4.1,0.8c14.4,1.7,28,6,40.5,13.4c29.6,17.5,47.6,43.2,52.7,77.2
		c4.8,31.9-3.3,60.8-24.5,85.1c-26,29.8-59.3,42.4-98.5,35.9c-39.5-6.5-67-29.4-82-66.4c-3.9-9.6-5.2-20.4-7.7-30.6
		c0-5.6,0-11.2,0-16.7c0.5-3,1-6,1.6-9c7.3-39.4,29.5-67,66.5-82C258.6,262.7,269.4,261.4,279.6,258.9z M274.4,360.6
		c7.2-2.3,11.4-6.4,12.6-12.6c3.1-16.4-5.2-30.6-23.8-31.3c-15.9-0.6-31.8-0.2-47.7-0.3c-1.8,0-3.6,0-5.5,0c0,32.6,0,64.7,0,97
		c17.3,0,34.3,0,51.3,0c2.4,0,4.7-0.3,7-0.9c11.3-2.6,19.8-8.5,22-20.6c0.8-4.6,0.8-9.5,0.2-14.1
		C289.2,369.1,284.9,362.4,274.4,360.6z M365.6,383.3c2.4-20.9-6.1-41.5-31.8-42.2c-14.5-0.4-26.9,4.1-33.7,17.9
		c-2.8,5.6-4.2,12.1-5.1,18.3c-1.9,14.3,5.9,28.8,18.2,34.3c11.8,5.3,24.2,5.4,36.2,0.9c11.1-4.1,16.6-12.8,15.3-22.7
		c-5.3,0-10.7,0-16.1,0c-2.9,8.2-10.3,11.9-19.9,10c-8.7-1.8-13.1-7.4-12.6-16.5C332.6,383.3,349,383.3,365.6,383.3z M351.2,322.5
		c-13.4,0-26.5,0-39.6,0c0,4,0,7.7,0,11.4c13.3,0,26.3,0,39.6,0C351.2,330.1,351.2,326.5,351.2,322.5z"/>
	<path d="M232.2,370.3c9.5,0,18.7-0.1,27.8,0.1c4.4,0.1,7.5,2.6,9.2,6.7c4.4,10.9-1,19.1-12.6,19.2c-8.1,0-16.1,0-24.5,0
		C232.2,387.6,232.2,379.2,232.2,370.3z"/>
	<path d="M232.2,355.1c0-7.3,0-14.2,0-21.5c9.5,0,18.8-0.2,28.1,0.2c2,0.1,5.2,2.5,5.5,4.2c0.7,4.3,0.6,9-0.3,13.3
		c-0.3,1.6-3.7,3.5-5.8,3.6C250.6,355.4,241.6,355.1,232.2,355.1z"/>
	<path d="M347.2,370.1c-10.5,0-20.8,0-31.1,0c0.2-8.1,7.6-14.8,16.4-14.8C341.1,355.3,346.6,360.7,347.2,370.1z"/>
</g>
</svg>
