<?xml version="1.0" encoding="utf-8"?>
<!-- Generator: Adobe Illustrator 19.1.0, SVG Export Plug-In . SVG Version: 6.00 Build 0)  -->
<!DOCTYPE svg PUBLIC "-//W3C//DTD SVG 1.1//EN" "http://www.w3.org/Graphics/SVG/1.1/DTD/svg11.dtd">
<svg version="1.1" id="Layer_1" xmlns="http://www.w3.org/2000/svg" xmlns:xlink="http://www.w3.org/1999/xlink" x="0px" y="0px"
	 width="214.3px" height="214px" viewBox="-649 662.6 214.3 214" style="enable-background:new -649 662.6 214.3 214;"
	 xml:space="preserve">
<style type="text/css">
	.st0{fill:#FFFFFF;}
</style>
<g>
	<path class="st0" d="M-568.5,850.5c0,0.7,0,1.3,0,1.9c0,5.7-0.2,11.4,0.1,17.1c0.4,6.2-4,8-8.6,6.3c-5.7-2.2-11.3-4.6-16.7-7.7
		c-6.7-3.8-12.9-8.3-18.7-13.4c-9.1-8.1-16.6-17.6-22.7-28.3c-3.2-5.7-6-11.6-7.9-17.9c-1.4-4.7-2.8-9.3-3.9-14.1
		c-0.9-3.9-1.3-8-1.6-12c-0.4-4.6-0.6-9.2-0.4-13.8c0.2-4.6,0.7-9.3,1.4-13.9c0.5-3.7,1.2-7.5,2.2-11.1c1.4-5,3.1-10,5.1-14.8
		c3.3-8,7.5-15.4,12.6-22.3c8.1-11,17.8-20.1,29.1-27.3c5.8-3.7,11.9-7,18.4-9.3c4.7-1.7,9.5-3.3,14.3-4.5c3.4-0.9,6.9-1.2,10.3-1.8
		c5.8-1,11.7-1.2,17.6-0.9c4.4,0.2,8.8,0.8,13.2,1.4c3.7,0.5,7.3,1.3,10.9,2.3c5.8,1.6,11.4,3.7,16.9,6.3
		c9.1,4.4,17.5,9.9,25.2,16.7c10.7,9.5,19.3,20.7,25.7,33.7c2.6,5.1,4.8,10.5,6.3,16.1c1.2,4.5,2.5,9.1,3.4,13.7
		c0.6,3.2,0.9,6.5,1.2,9.7c0.3,4.4,0.6,8.9,0.4,13.4c-0.2,4.6-0.7,9.1-1.4,13.7c-0.5,3.8-1.2,7.5-2.2,11.2
		c-2.2,8.4-5.4,16.3-9.4,23.9c-5.8,10.8-13.2,20.4-22.1,28.7c-8,7.4-16.9,13.5-26.6,18.1c-3.8,1.8-7.6,3.4-11.6,4.7
		c-3.5,1.1-7.2-0.8-7.2-5.2c0.1-10.4,0.2-20.8,0-31.2c-0.1-6.9-1.7-13.3-6.5-18.5c-0.1-0.1-0.1-0.2-0.2-0.5c0.3-0.1,0.7-0.4,1-0.4
		c3.4-0.6,6.9-0.9,10.2-1.7c11.6-2.8,21.9-7.8,28.8-18.4c2.5-3.7,4.2-7.8,5.5-12.1c2.2-7.1,2.9-14.4,2.9-21.8
		c0-10.7-3.4-20.2-10.3-28.3c-0.5-0.5-0.7-0.9-0.4-1.8c2-5.4,2.1-11.1,1.5-16.7c-0.4-3.5-1.6-7-2.5-10.5c-0.2-0.8-0.8-1.2-1.7-1.3
		c-4-0.1-7.8,0.9-11.5,2.3c-5.7,2.2-11,5.3-16.1,8.8c-1.2,0.8-2.2-0.1-3.2-0.3c-2.2-0.3-4.4-1-6.7-1.4c-3.4-0.5-6.9-1.2-10.3-1.3
		c-5.1-0.2-10.2,0-15.2,0.2c-2,0.1-4.1,0.3-6.1,0.6c-3.4,0.6-6.9,1.3-10.3,2c-1.6,0.4-3,0.4-4.5-0.7c-5.1-3.6-10.5-6.5-16.3-8.5
		c-3.1-1.1-6.3-1.9-9.7-1.7c-1.1,0-1.6,0.5-2,1.5c-2.3,6.3-3.1,12.8-2.5,19.5c0.2,2.5,1,5,1.5,7.5c0.1,0.5,0.1,1.1-0.2,1.4
		c-3.3,3.9-6,8.2-7.7,13.1c-1.2,3.3-2.1,6.6-2.4,10.1c-0.2,2.6-0.5,5.2-0.4,7.8c0.2,6.2,0.8,12.4,2.5,18.4c2.6,8.8,7,16.4,14.2,22.1
		c4.1,3.2,8.7,5.6,13.6,7.3c4.1,1.4,8.3,2.5,12.6,3.1c1.8,0.3,3.6,0.6,5.4,0.9c-1.2,1.7-2.3,3.3-3.2,4.9c-1.6,2.7-2.4,5.8-3,8.9
		c-0.1,0.5-0.7,1.1-1.3,1.3c-4.5,1.9-9.3,2.8-14.1,2.1c-5.6-0.8-10.1-3.7-13.6-8.3c-1.7-2.3-3.2-4.8-5-7.1c-2.6-3.3-5.9-5.6-9.8-6.9
		c-2.4-0.8-4.9-1.1-7.3-0.2c-1.4,0.5-1.8,1.7-0.8,2.8c0.9,1.1,1.9,2.2,3.1,3c5.3,3.3,8.8,8.2,11.2,13.9c1.5,3.5,3.1,7,5.9,9.7
		c3.1,2.9,6.8,4.8,10.9,6c4.9,1.4,9.7,1.1,14.6,0.8C-572.4,851.4-570.5,850.8-568.5,850.5z"/>
	<path class="st0" d="M-570.9,838.6c0.6,0.4,1.3,0.6,1.8,1.2c0.2,0.2-0.1,1.1-0.4,1.4c-0.7,0.8-1.7,1.2-2.7,0.7
		c-0.5-0.2-1.2-1-1.1-1.4c0.1-0.6,0.8-1.1,1.3-1.5c0.3-0.2,0.7-0.1,1.1-0.2C-571,838.8-571,838.7-570.9,838.6z"/>
	<path class="st0" d="M-579.4,839.9c0.3,0,0.6,0,0.7,0.1c0.5,0.4,1.2,0.8,1.4,1.3c0.1,0.3-0.5,1.2-1,1.4c-0.7,0.3-1.5,0.3-2.3,0.2
		c-0.7-0.1-1.3-0.6-1.2-1.6c0.2-1,0.8-1.2,1.7-1.3C-579.8,840-579.6,839.9-579.4,839.9z"/>
	<path class="st0" d="M-587.8,841.7c-1.4,0-2.6-0.8-2.6-1.9c0-1.2,0.8-1.3,1.7-1.4c1.5-0.1,2.5,1,2.7,1.9
		C-585.8,841.1-586.7,841.7-587.8,841.7z"/>
	<path class="st0" d="M-596.3,833.7c1.4,0.1,2.7,1.4,2.6,2.7c-0.1,0.9-0.5,1.2-1.4,1.1c-1.4-0.1-2.5-1.2-2.5-2.6
		C-597.5,833.9-597,833.6-596.3,833.7z"/>
	<path class="st0" d="M-600.1,831.2c-1.6,0-2.9-1.6-2.5-2.9c0.2-0.8,0.9-1,1.6-0.8c1,0.3,1.8,1.8,1.5,2.8
		C-599.6,830.7-600,831-600.1,831.2z"/>
	<path class="st0" d="M-604.6,824.9c-1.4-0.1-2.3-1.1-2.1-2.1c0.1-0.4,0.7-1,1.1-1.1c0.8-0.1,2.1,1.5,1.9,2.2
		C-603.9,824.5-604.4,824.8-604.6,824.9z"/>
	<path class="st0" d="M-609.4,820.7c-0.7-0.6-1.2-1.2-1.8-1.7c0.4-0.3,0.9-1,1-0.9c0.7,0.3,1.3,0.9,1.9,1.4
		C-608.6,819.8-608.9,820.1-609.4,820.7z"/>
</g>
</svg>
