<?xml version="1.0" encoding="utf-8"?>
<!-- Generator: Adobe Illustrator 18.1.1, SVG Export Plug-In . SVG Version: 6.00 Build 0)  -->
<!DOCTYPE svg PUBLIC "-//W3C//DTD SVG 1.1//EN" "http://www.w3.org/Graphics/SVG/1.1/DTD/svg11.dtd">
<svg version="1.1" id="Layer_1" xmlns="http://www.w3.org/2000/svg" xmlns:xlink="http://www.w3.org/1999/xlink" x="0px" y="0px"
	 width="612px" height="792px" viewBox="0 0 612 792" enable-background="new 0 0 612 792" xml:space="preserve">
<circle cx="294.7" cy="351.5" r="86.4"/>
<ellipse fill="#FFFFFF" cx="297.9" cy="348.3" rx="50.6" ry="38.2"/>
<ellipse transform="matrix(0.8764 -0.4816 0.4816 0.8764 -120.5288 169.4523)" fill="#FFFFFF" cx="269.8" cy="319.5" rx="13.1" ry="19.3"/>
<ellipse transform="matrix(0.88 0.475 -0.475 0.88 191.1755 -117.6583)" fill="#FFFFFF" cx="328.4" cy="319.5" rx="13.1" ry="19.3"/>
<path fill="#FFFFFF" d="M279.4,376.2c0,0-10.8,22.1-5.3,69.7h47c0,0,4.8-52.7-5.2-73.7L279.4,376.2z"/>
<path fill="#FFFFFF" d="M235.1,378.9c4-1.2,9.3,1.2,12.6,3.4c3.9,2.5,7.1,6.1,9.7,9.9c0.6,0.9,1.3,1.9,2.2,2.5
	c0.8,0.5,1.7,0.8,2.6,1c6.1,1.6,11.7,2.4,17.6-0.3c0.7,3.5,1.9,12.6-1.5,14.2c-3.9,1.8-14.2-2.5-17.9-4c-3.9-1.6-7.7-3.7-10.5-6.9
	c-2.8-3.2-4.3-7.2-6.6-10.8C241.1,384.4,237.9,382.1,235.1,378.9z"/>
</svg>
