<?xml version="1.0" encoding="utf-8"?>
<!-- Generator: Adobe Illustrator 19.1.0, SVG Export Plug-In . SVG Version: 6.00 Build 0)  -->
<!DOCTYPE svg PUBLIC "-//W3C//DTD SVG 1.1//EN" "http://www.w3.org/Graphics/SVG/1.1/DTD/svg11.dtd">
<svg version="1.1" id="Layer_1" xmlns="http://www.w3.org/2000/svg" xmlns:xlink="http://www.w3.org/1999/xlink" x="0px" y="0px"
	 width="612px" height="792px" viewBox="0 0 612 792" style="enable-background:new 0 0 612 792;" xml:space="preserve">
<style type="text/css">
	.st0{fill:#C8C8C8;}
</style>
<circle cx="294.7" cy="351.5" r="86.4"/>
<ellipse class="st0" cx="297.9" cy="348.3" rx="50.6" ry="38.2"/>
<ellipse transform="matrix(-0.4816 -0.8764 0.8764 -0.4816 119.6966 709.8558)" class="st0" cx="269.8" cy="319.5" rx="19.3" ry="13.1"/>
<ellipse transform="matrix(0.475 -0.88 0.88 0.475 -108.7346 456.7278)" class="st0" cx="328.4" cy="319.5" rx="19.3" ry="13.1"/>
<path class="st0" d="M279.4,376.2c0,0-10.8,22.1-5.3,69.7h47c0,0,4.8-52.7-5.2-73.7L279.4,376.2z"/>
<path class="st0" d="M235.1,378.9c4-1.2,9.3,1.2,12.6,3.4c3.9,2.5,7.1,6.1,9.7,9.9c0.6,0.9,1.3,1.9,2.2,2.5c0.8,0.5,1.7,0.8,2.6,1
	c6.1,1.6,11.7,2.4,17.6-0.3c0.7,3.5,1.9,12.6-1.5,14.2c-3.9,1.8-14.2-2.5-17.9-4c-3.9-1.6-7.7-3.7-10.5-6.9
	c-2.8-3.2-4.3-7.2-6.6-10.8C241.1,384.4,237.9,382.1,235.1,378.9z"/>
</svg>
